/* XPM */
static char * blue_xpm[] = {
"20 20 152 2",
"  	c #3E4EBA",
". 	c #4647CE",
"+ 	c #4946D6",
"@ 	c #4A45DA",
"# 	c #4945DB",
"$ 	c #4845DC",
"% 	c #4846DA",
"& 	c #4846DB",
"* 	c #4B45D9",
"= 	c #4C4CB9",
"- 	c #423DC9",
"; 	c #4F39DF",
"> 	c #523AEB",
", 	c #5439F0",
"' 	c #5339EF",
") 	c #5339EE",
"! 	c #5339F0",
"~ 	c #533AF0",
"{ 	c #523AF0",
"] 	c #523AEF",
"^ 	c #5239F3",
"/ 	c #5538F6",
"( 	c #5641D8",
"_ 	c #3D3AC3",
": 	c #4532D1",
"< 	c #4C36E5",
"[ 	c #5138ED",
"} 	c #5238EB",
"| 	c #5339E8",
"1 	c #5338E9",
"2 	c #5238EA",
"3 	c #5237EB",
"4 	c #5237ED",
"5 	c #5139EB",
"6 	c #4F39EB",
"7 	c #4F39EA",
"8 	c #4F3AE6",
"9 	c #503AEA",
"0 	c #503AF3",
"a 	c #523AFA",
"b 	c #5842DA",
"c 	c #3D39C2",
"d 	c #4533D0",
"e 	c #4933E0",
"f 	c #4D35E8",
"g 	c #4E35E9",
"h 	c #4F35E6",
"i 	c #5036E4",
"j 	c #5035E5",
"k 	c #5035E6",
"l 	c #5035E7",
"m 	c #5136EA",
"n 	c #4F37EA",
"o 	c #4F37E9",
"p 	c #4E38E8",
"q 	c #4E38E7",
"r 	c #4E39E4",
"s 	c #4F39E9",
"t 	c #5039F2",
"u 	c #543BFB",
"v 	c #3D3AC2",
"w 	c #4633D0",
"x 	c #4934E0",
"y 	c #4E36E9",
"z 	c #4E36E8",
"A 	c #4F36E6",
"B 	c #5036E5",
"C 	c #5036E6",
"D 	c #5036E9",
"E 	c #4F37E8",
"F 	c #513AF4",
"G 	c #553CFC",
"H 	c #5842D9",
"I 	c #3D3BC2",
"J 	c #4533CE",
"K 	c #4A34E0",
"L 	c #5139E9",
"M 	c #4F38E7",
"N 	c #4F38E6",
"O 	c #4D38E4",
"P 	c #4D37E9",
"Q 	c #5139F5",
"R 	c #543CFB",
"S 	c #5741D8",
"T 	c #4432CE",
"U 	c #4A34DF",
"V 	c #4D37E5",
"W 	c #4D37EA",
"X 	c #5139F6",
"Y 	c #4F37E7",
"Z 	c #4D37E6",
"` 	c #4D37EC",
" .	c #5139F8",
"..	c #543BFC",
"+.	c #3E3BC3",
"@.	c #4532CE",
"#.	c #5138E9",
"$.	c #4E37EC",
"%.	c #3E3CC3",
"&.	c #4A35E0",
"*.	c #4E39E6",
"=.	c #4E38EC",
"-.	c #5139F7",
";.	c #4E38EA",
">.	c #4E39E5",
",.	c #4E39E7",
"'.	c #5139F4",
").	c #513AF3",
"!.	c #4935DF",
"~.	c #4F38E8",
"{.	c #4E37E8",
"].	c #4E37E9",
"^.	c #4E38E5",
"/.	c #4E39E3",
"(.	c #513AF1",
"_.	c #533AFB",
":.	c #5740D7",
"<.	c #3C3EC3",
"[.	c #4533CD",
"}.	c #4632D5",
"|.	c #4935DC",
"1.	c #4934DC",
"2.	c #4935DA",
"3.	c #4935D9",
"4.	c #4A34D9",
"5.	c #4A34DA",
"6.	c #4934D9",
"7.	c #4835D8",
"8.	c #4B36E4",
"9.	c #523BF8",
"0.	c #5742D8",
"a.	c #3D3FC4",
"b.	c #4230C3",
"c.	c #3D2CBD",
"d.	c #3C2CBE",
"e.	c #3E2DBF",
"f.	c #3E2EC0",
"g.	c #3D2EC1",
"h.	c #4736DE",
"i.	c #5843D2",
"j.	c #3838BA",
"k.	c #3A2BBC",
"l.	c #3B2BBF",
"m.	c #3D2CC1",
"n.	c #3D2BC1",
"o.	c #3D2CC0",
"p.	c #3D2CBF",
"q.	c #3D2CBE",
"r.	c #3B2BBC",
"s.	c #3D2DBC",
"t.	c #3929C4",
"u.	c #533FC0",
"  . + @ @ # $ % % % % % % & $ $ $ $ * = ",
"- ; > , , ' ' ) ) ! ! ~ { { { ] { ^ / ( ",
"_ : < [ [ } | 1 2 3 4 [ 5 6 7 8 9 0 a b ",
"c d e f g h i j k l m n o p q r s t u b ",
"v w x y z A i B C l D n E p q r s F G H ",
"I J K L E M N N M E E E E E M O P Q R S ",
"I T U L E M N N M E E E E E M V W X u S ",
"I T U L E Y M M Y E E E E E M Z `  ...S ",
"I T U L E o n n o E E E E E M Z `  ...S ",
"I T U L E o n n o E E E E E M Z `  ...S ",
"I T U L E o n n o E E E E E M Z `  ...S ",
"+.@.K #.E E o o E E E E E E M q $. ...S ",
"%.J &.#.E E E E E E E E E E M *.=.-...S ",
"%.J &.#.E E E E E E E E E E M *.;.Q ..S ",
"%.J &.#.E E M M M M M M M M N >.,.'...S ",
"%.J &.#.E E E E E E E E E E E >.>.)...S ",
"%.J !.~.{.{.].].].].].o o o o ^./.(._.:.",
"<.[.}.|.1.2.3.3.3.3.4.4.4.4.5.6.7.8.9.0.",
"a.b.c.d.e.e.e.e.e.e.e.e.e.e.e.e.f.g.h.i.",
"j.k.l.m.n.n.n.n.n.n.n.n.n.o.p.q.r.s.t.u."};
