/* XPM */
static char * cyan_xpm[] = {
"20 20 140 2",
"  	c #27BE9B",
". 	c #1DDCAF",
"+ 	c #1DDEB0",
"@ 	c #1EDEB0",
"# 	c #21DDB1",
"$ 	c #20DDB1",
"% 	c #20DEB1",
"& 	c #1EDEB1",
"* 	c #1DDFB1",
"= 	c #1DDFB2",
"- 	c #1DDFB3",
"; 	c #1CDFB2",
"> 	c #1EDDB0",
", 	c #1FE5B4",
"' 	c #1FB391",
") 	c #19CFA8",
"! 	c #20DDB4",
"~ 	c #1CDFB4",
"{ 	c #1BE0B5",
"] 	c #1AE1B5",
"^ 	c #19E1B4",
"/ 	c #19E1B5",
"( 	c #19E1B6",
"_ 	c #19E0B6",
": 	c #18E1B5",
"< 	c #17E2B5",
"[ 	c #1AE6B7",
"} 	c #1BE9B8",
"| 	c #22B491",
"1 	c #1CC6A3",
"2 	c #19D0A9",
"3 	c #1ADFB3",
"4 	c #18DEB5",
"5 	c #18DFB4",
"6 	c #18DFB3",
"7 	c #1AE4B7",
"8 	c #1CECBB",
"9 	c #1AEBB9",
"0 	c #24B392",
"a 	c #1CC7A4",
"b 	c #16CCA5",
"c 	c #17DBAF",
"d 	c #16DCB2",
"e 	c #16DCB1",
"f 	c #16DCB0",
"g 	c #16DDB0",
"h 	c #1AE3B7",
"i 	c #1CEBBA",
"j 	c #22B393",
"k 	c #1BC8A5",
"l 	c #16CDA6",
"m 	c #18DAAF",
"n 	c #17DBB2",
"o 	c #17DCB0",
"p 	c #19E4B6",
"q 	c #1BECBB",
"r 	c #1BEBBA",
"s 	c #20B493",
"t 	c #1AC8A5",
"u 	c #15CDA5",
"v 	c #17DBB1",
"w 	c #18DBB2",
"x 	c #17DCB2",
"y 	c #19DAB2",
"z 	c #19DBB0",
"A 	c #1AEDBB",
"B 	c #1FB593",
"C 	c #19C8A5",
"D 	c #19D9AF",
"E 	c #19EDBB",
"F 	c #20B593",
"G 	c #1AE3B6",
"H 	c #21B493",
"I 	c #18C7A3",
"J 	c #15CCA5",
"K 	c #1ADAB0",
"L 	c #19DBB2",
"M 	c #18DCB0",
"N 	c #1BDAB0",
"O 	c #1DEBBA",
"P 	c #1EEABA",
"Q 	c #18C8A3",
"R 	c #14CDA5",
"S 	c #19DAB0",
"T 	c #22B492",
"U 	c #18C8A2",
"V 	c #14CCA5",
"W 	c #1BE3B6",
"X 	c #1BEDBC",
"Y 	c #1DE9B9",
"Z 	c #23B391",
"` 	c #16CEA6",
" .	c #1FDBB2",
"..	c #1FDBB4",
"+.	c #1FDAB2",
"@.	c #1FDBB1",
"#.	c #1FDAB3",
"$.	c #1EDAB0",
"%.	c #1CE2B4",
"&.	c #1CEDBB",
"*.	c #1DE8B8",
"=.	c #21B491",
"-.	c #1AC7A2",
";.	c #1AC29F",
">.	c #1FC29F",
",.	c #1EC29E",
"'.	c #1DC39D",
").	c #1EC39C",
"!.	c #1FC29C",
"~.	c #20C39E",
"{.	c #23D0A9",
"].	c #22EABA",
"^.	c #19EBB8",
"/.	c #1FB58F",
"(.	c #1CC09A",
"_.	c #24B896",
":.	c #29B593",
"<.	c #27B492",
"[.	c #25B691",
"}.	c #26B590",
"|.	c #26B492",
"1.	c #27B491",
"2.	c #27B490",
"3.	c #28B492",
"4.	c #28B392",
"5.	c #27B896",
"6.	c #1ECA9F",
"7.	c #22EAB5",
"8.	c #2F9F85",
"9.	c #26AA8A",
"0.	c #28A786",
"a.	c #2BA687",
"b.	c #2BA786",
"c.	c #2BA686",
"d.	c #2CA686",
"e.	c #2DA686",
"f.	c #2DA685",
"g.	c #2AA986",
"h.	c #26AA84",
"i.	c #26BE91",
"  . + @ # $ % & * * * * = - - - ; = > , ",
"' ) ! ~ { { { ] ^ ^ / / ( _ _ _ : < [ } ",
"| 1 2 3 4 4 4 5 6 6 5 4 4 4 4 6 6 7 8 9 ",
"0 a b c d d d e f f e d d d d e g h 8 i ",
"j k l m e d d e f f e d d d n o o p q r ",
"s t u m o f f v w w x d d w y z z p A r ",
"B C u D o f f v w w x d d w y z z p E i ",
"F C b D o f f v w w x d d w y z z G E i ",
"H I J K L w w w w w w w w w w M M G E i ",
"j I J K L w w w w w w w w w w M M G E i ",
"j I J K L w w w w w w w w w w M M G E i ",
"F I u K L w w w w w w w w w w M M G E i ",
"B I u N L w w w w w w w w w w M M G E O ",
"s I u N L w w x x x x x x x x o o G q P ",
"H Q R S w x d d d d d d d d d f M G q P ",
"T U V K L L L L L L L L L L L z z W X Y ",
"Z U `  ...+.+.@.@.@. .#.@.@.@.@.$.%.&.*.",
"=.-.;.>.,.'.'.).).).).).).).).!.~.{.].^.",
"/.(._.:.<.[.}.|.1.1.2.2.1.<.<.3.4.5.6.7.",
"8.9.0.a.b.b.c.d.d.d.d.d.d.d.d.e.f.g.h.i."};
