/* XPM */
static char * green_xpm[] = {
"20 20 149 2",
"  	c #2EA130",
". 	c #16C93D",
"+ 	c #15CE3D",
"@ 	c #11CF3C",
"# 	c #10CF3A",
"$ 	c #10CF39",
"% 	c #10D13B",
"& 	c #10D039",
"* 	c #35A031",
"= 	c #0CC231",
"- 	c #0BD237",
"; 	c #08D837",
"> 	c #06D835",
", 	c #06D833",
"' 	c #06D933",
") 	c #05D933",
"! 	c #05D932",
"~ 	c #09DC35",
"{ 	c #0ADC36",
"] 	c #34A032",
"^ 	c #08BD30",
"/ 	c #04C431",
"( 	c #0BD13C",
"_ 	c #0AD33B",
": 	c #0AD339",
"< 	c #09D437",
"[ 	c #08D537",
"} 	c #09D438",
"| 	c #08D437",
"1 	c #08D835",
"2 	c #07E034",
"3 	c #05DE35",
"4 	c #31A232",
"5 	c #08BF33",
"6 	c #04C333",
"7 	c #0CD03E",
"8 	c #0AD13E",
"9 	c #0AD13C",
"0 	c #08D33A",
"a 	c #09D23B",
"b 	c #09D939",
"c 	c #08E337",
"d 	c #06DF36",
"e 	c #07BE32",
"f 	c #07C535",
"g 	c #0DD13F",
"h 	c #09DA39",
"i 	c #09E538",
"j 	c #08DF37",
"k 	c #32A231",
"l 	c #08BD31",
"m 	c #08C536",
"n 	c #0CD13E",
"o 	c #08D13B",
"p 	c #08D13A",
"q 	c #08D23A",
"r 	c #07D239",
"s 	c #08D339",
"t 	c #0ADA38",
"u 	c #0AE638",
"v 	c #09E036",
"w 	c #33A230",
"x 	c #09C536",
"y 	c #0BD13D",
"z 	c #07D139",
"A 	c #08D338",
"B 	c #0BDA37",
"C 	c #0AE637",
"D 	c #0AE035",
"E 	c #09E637",
"F 	c #0ADF35",
"G 	c #07D338",
"H 	c #0ADA37",
"I 	c #08E737",
"J 	c #0BDF35",
"K 	c #07D438",
"L 	c #09DB37",
"M 	c #0ADB37",
"N 	c #0CDF35",
"O 	c #08C634",
"P 	c #0CD13D",
"Q 	c #07D13B",
"R 	c #33A132",
"S 	c #06BE31",
"T 	c #05C734",
"U 	c #0AD33D",
"V 	c #07D138",
"W 	c #07D237",
"X 	c #09D337",
"Y 	c #0CDA36",
"Z 	c #09E636",
"` 	c #0CDF34",
" .	c #02C934",
"..	c #06D43D",
"+.	c #04D33B",
"@.	c #05D239",
"#.	c #06D239",
"$.	c #05D338",
"%.	c #06D337",
"&.	c #06D336",
"*.	c #06D335",
"=.	c #09D336",
"-.	c #07DD36",
";.	c #06E836",
">.	c #33A133",
",.	c #07BC31",
"'.	c #07C533",
").	c #0ED13D",
"!.	c #0CD03C",
"~.	c #0DD03B",
"{.	c #0DCF3C",
"].	c #0CD03D",
"^.	c #0DD03C",
"/.	c #09D23A",
"(.	c #09D33A",
"_.	c #0BDB3C",
":.	c #09E53A",
"<.	c #0DE038",
"[.	c #32A133",
"}.	c #0BBC32",
"|.	c #06B62A",
"1.	c #03B226",
"2.	c #04B226",
"3.	c #04B127",
"4.	c #04B12A",
"5.	c #04B129",
"6.	c #03B228",
"7.	c #03B429",
"8.	c #07BE2E",
"9.	c #0BDD3D",
"0.	c #0BDE3A",
"a.	c #31A031",
"b.	c #07B129",
"c.	c #02AA22",
"d.	c #03AB22",
"e.	c #03AA21",
"f.	c #04AA23",
"g.	c #04A925",
"h.	c #04A924",
"i.	c #03AC23",
"j.	c #07BB2B",
"k.	c #10D43C",
"l.	c #258B24",
"m.	c #029E1B",
"n.	c #03A01C",
"o.	c #03A01D",
"p.	c #029F1C",
"q.	c #019F1A",
"r.	c #02AE25",
"  . + @ # # # # # # # # # # # # # $ % & ",
"* = - ; > , ' ' ) ) ) ) ) ) ) ' ! ! ~ { ",
"] ^ / ( _ : : : < [ [ [ [ [ } : | 1 2 3 ",
"4 5 6 7 8 9 9 9 0 0 0 0 0 0 a 9 0 b c d ",
"4 e f g 8 9 9 9 0 0 0 0 0 0 a 9 0 h i j ",
"k l m n o p p p q r r r r r p p s t u v ",
"w ^ x y z z z z z z z z z z z z A B C D ",
"w ^ x y z z z z z z z z z z z z A B E F ",
"w ^ x y z z z z z z z z z z z z G H I J ",
"w ^ x y z z z z z z z z z z z z K L I F ",
"w ^ x y z z z z z z z z z z z z G M I J ",
"w ^ m ( z z z z z z z z z z z z G H I N ",
"w ^ O P Q z z z z z z z z z z z G H I N ",
"R ^ O P Q z z z z z z z z z z z A B E N ",
"R S T U Q z V W W W W W W W W W X Y Z ` ",
"R S  ...+.@.#.$.%.%.%.&.*.*.*.*.=.-.;.` ",
">.,.'.).!.~.{.].^.!.( /././././.(._.:.<.",
"[.}.|.1.1.2.3.4.4.4.4.5.6.6.6.6.7.8.9.0.",
"a.b.c.d.d.e.f.g.h.h.h.h.h.h.h.h.h.i.j.k.",
"l.m.n.n.n.n.o.o.o.o.o.o.o.o.o.o.o.p.q.r."};
