/* XPM */
static char * pink_xpm[] = {
"20 20 169 2",
"  	c #BB08C1",
". 	c #D204D8",
"+ 	c #D504DA",
"@ 	c #D703DC",
"# 	c #D602DB",
"$ 	c #D702DB",
"% 	c #D803DC",
"& 	c #D802DC",
"* 	c #D902DC",
"= 	c #D903DB",
"- 	c #DA03DA",
"; 	c #DA04D9",
"> 	c #D903D8",
", 	c #D905D8",
"' 	c #D10ECF",
") 	c #BA0BBE",
"! 	c #CE05D0",
"~ 	c #D703D7",
"{ 	c #DC02DC",
"] 	c #DB02DC",
"^ 	c #DC02DD",
"/ 	c #DD02E1",
"( 	c #DC02E1",
"_ 	c #DC03E0",
": 	c #DC03DF",
"< 	c #DC03DE",
"[ 	c #DB04DD",
"} 	c #DA04DA",
"| 	c #DD03DE",
"1 	c #E204DE",
"2 	c #D60FD2",
"3 	c #B60CBD",
"4 	c #C505C5",
"5 	c #CE03CC",
"6 	c #DA03D8",
"7 	c #DA02D9",
"8 	c #DA03D7",
"9 	c #D804D6",
"0 	c #DF03DF",
"a 	c #E403E2",
"b 	c #D411D1",
"c 	c #C303C4",
"d 	c #CC02C6",
"e 	c #D903D1",
"f 	c #D904D1",
"g 	c #D703D0",
"h 	c #D403CE",
"i 	c #D403CD",
"j 	c #D403CB",
"k 	c #D404CA",
"l 	c #D601D1",
"m 	c #D602D1",
"n 	c #DF04DC",
"o 	c #D411D2",
"p 	c #CA02C5",
"q 	c #D604CE",
"r 	c #D605CE",
"s 	c #D504CE",
"t 	c #D204CD",
"u 	c #D204CC",
"v 	c #D502CF",
"w 	c #D403D0",
"x 	c #DE05D9",
"y 	c #D411D3",
"z 	c #C202C2",
"A 	c #C801C5",
"B 	c #D404D0",
"C 	c #D303CD",
"D 	c #D502CD",
"E 	c #D403CF",
"F 	c #DE05D7",
"G 	c #E403E3",
"H 	c #B60CBC",
"I 	c #D305CF",
"J 	c #D305D0",
"K 	c #D405CF",
"L 	c #D410D4",
"M 	c #B60CBB",
"N 	c #E403E5",
"O 	c #D410D5",
"P 	c #B50BB9",
"Q 	c #C303C3",
"R 	c #CA02C8",
"S 	c #D204CE",
"T 	c #D40FD7",
"U 	c #B50CB8",
"V 	c #D306CE",
"W 	c #D205CD",
"X 	c #B50CB7",
"Y 	c #CA02C7",
"Z 	c #D306CD",
"` 	c #D205CC",
" .	c #D602CD",
"..	c #D503CF",
"+.	c #DF04D7",
"@.	c #E503E4",
"#.	c #C304C2",
"$.	c #D702CD",
"%.	c #D602CF",
"&.	c #E004D7",
"*.	c #E503E3",
"=.	c #B50CB5",
"-.	c #C304C1",
";.	c #CA02C6",
">.	c #D603CF",
",.	c #E004D8",
"'.	c #D304CB",
").	c #D304CC",
"!.	c #D403CC",
"~.	c #D502CE",
"{.	c #D403D1",
"].	c #DF04D9",
"^.	c #D404CB",
"/.	c #D503CB",
"(.	c #D603CB",
"_.	c #D702CB",
":.	c #D503CC",
"<.	c #D701CF",
"[.	c #D603D2",
"}.	c #E003D9",
"|.	c #D511D3",
"1.	c #C405C0",
"2.	c #CC04C8",
"3.	c #D206CC",
"4.	c #D105CC",
"5.	c #D106CC",
"6.	c #D006CC",
"7.	c #D105D0",
"8.	c #D005D2",
"9.	c #E405E4",
"0.	c #D612D4",
"a.	c #B30DB7",
"b.	c #BC07BD",
"c.	c #B503B9",
"d.	c #B301B9",
"e.	c #B401B9",
"f.	c #B302BA",
"g.	c #B203BA",
"h.	c #B103BA",
"i.	c #B003BC",
"j.	c #AF05BE",
"k.	c #C206C6",
"l.	c #E008DD",
"m.	c #D711D3",
"n.	c #B20DAF",
"o.	c #AF05B1",
"p.	c #A303B0",
"q.	c #A204B3",
"r.	c #A104B3",
"s.	c #A304B3",
"t.	c #A403B3",
"u.	c #A304B1",
"v.	c #9F06B0",
"w.	c #A904B0",
"x.	c #C403BE",
"y.	c #D214C7",
"z.	c #A10D9F",
"A.	c #A002A6",
"B.	c #9D02A7",
"C.	c #9E02A4",
"D.	c #9D03A4",
"E.	c #9B04A4",
"F.	c #9C04A4",
"G.	c #9C03A5",
"H.	c #9E02A6",
"I.	c #9D03A7",
"J.	c #9D03A8",
"K.	c #A102A6",
"L.	c #AB0EAA",
"  . + @ # $ % % & * * * * * = - ; > , ' ",
") ! ~ { ] ^ / ( _ : : : : : < [ } | 1 2 ",
"3 4 5 6 6 6 7 7 7 8 8 8 8 8 8 > 9 0 a b ",
"3 c d e f g h h i j k k k k j l m n a o ",
"3 c p q r s t t t u u u u u u v w x a y ",
"3 z A B B B C C C t t t C C C D E F G y ",
"H z A I J K C C C t t t C C C D E F G L ",
"M z A I I K C C C t t t C C C D E F N O ",
"P Q R I S t C C C C C C C C C D E F N T ",
"U Q R V W u C C C C C C C C C D E F N T ",
"X Q Y Z ` u C C C C C C C C C D E F N T ",
"X Q Y Z ` u C C C t t t C C C  ...+.@.L ",
"X #.Y Z ` u C C C t t t C C C $.%.&.*.y ",
"=.-.;.Z ` u C C C t t t C C C  .>.,.*.y ",
"=.-.Y Z ` '.).).!.).).).).).).~.{.].*.y ",
"=.-.Y Z ).^./.(._._._.(././.:.<.[.}.@.|.",
"=.1.2.3.` 4.5.5.4.4.4.5.6.6.6.7.8., 9.0.",
"a.b.c.d.e.f.f.f.f.f.f.f.g.g.h.i.j.k.l.m.",
"n.o.p.q.r.r.r.q.s.s.t.t.s.s.u.u.v.w.x.y.",
"z.A.B.C.D.D.E.E.E.E.D.D.F.E.G.H.I.J.K.L."};
