/* XPM */
static char * red_xpm[] = {
"20 20 160 2",
"  	c #D51821",
". 	c #D91A24",
"+ 	c #DE1924",
"@ 	c #E11724",
"# 	c #E11624",
"$ 	c #E01724",
"% 	c #DF1724",
"& 	c #DE1824",
"* 	c #DE1823",
"= 	c #CA2820",
"- 	c #D60F13",
"; 	c #DC1418",
"> 	c #E9141C",
", 	c #F00F1B",
"' 	c #F50F1D",
") 	c #F40F1D",
"! 	c #F30F1D",
"~ 	c #F1101D",
"{ 	c #F2111E",
"] 	c #F3121D",
"^ 	c #DE2419",
"/ 	c #D20F11",
"( 	c #D41013",
"_ 	c #E11217",
": 	c #EA1117",
"< 	c #ED121A",
"[ 	c #ED121B",
"} 	c #EE1218",
"| 	c #EE1217",
"1 	c #EF1118",
"2 	c #EF1119",
"3 	c #EF101A",
"4 	c #EF101B",
"5 	c #EF1117",
"6 	c #F21118",
"7 	c #F61219",
"8 	c #DD2516",
"9 	c #D40E11",
"0 	c #D61015",
"a 	c #DE1115",
"b 	c #E61314",
"c 	c #E81317",
"d 	c #E81319",
"e 	c #EA1317",
"f 	c #EA1315",
"g 	c #EB1213",
"h 	c #ED1215",
"i 	c #ED1216",
"j 	c #ED1217",
"k 	c #ED1119",
"l 	c #ED1214",
"m 	c #ED1213",
"n 	c #ED1313",
"o 	c #F31215",
"p 	c #F91217",
"q 	c #DD2615",
"r 	c #D30E12",
"s 	c #D51016",
"t 	c #DF1115",
"u 	c #E81214",
"v 	c #E61216",
"w 	c #E71117",
"x 	c #E81116",
"y 	c #E91114",
"z 	c #EA1112",
"A 	c #EB1013",
"B 	c #EC1015",
"C 	c #EC1016",
"D 	c #EC1018",
"E 	c #EC1113",
"F 	c #EC1112",
"G 	c #EC1212",
"H 	c #F41316",
"I 	c #D30E14",
"J 	c #D31016",
"K 	c #E91214",
"L 	c #E81215",
"M 	c #E91116",
"N 	c #E91115",
"O 	c #EA1113",
"P 	c #EB1113",
"Q 	c #EB1114",
"R 	c #EB1115",
"S 	c #F31317",
"T 	c #F81218",
"U 	c #D30E16",
"V 	c #D31015",
"W 	c #E91213",
"X 	c #EA1214",
"Y 	c #F21318",
"Z 	c #F71219",
"` 	c #DC2617",
" .	c #D30F17",
"..	c #D21016",
"+.	c #DF1014",
"@.	c #EA1213",
"#.	c #D20F17",
"$.	c #D11017",
"%.	c #D20F16",
"&.	c #F31318",
"*.	c #F81219",
"=.	c #DD2617",
"-.	c #F91119",
";.	c #EB1214",
">.	c #F51218",
",.	c #FA1119",
"'.	c #DF2517",
").	c #EC1214",
"!.	c #F51119",
"~.	c #FB101A",
"{.	c #D01017",
"].	c #EC1115",
"^.	c #F7101A",
"/.	c #FC0F1B",
"(.	c #E02419",
"_.	c #D01115",
":.	c #DB1213",
"<.	c #E61412",
"[.	c #E91215",
"}.	c #EC1116",
"|.	c #F8101A",
"1.	c #FC101B",
"2.	c #DE2519",
"3.	c #D11014",
"4.	c #CF1115",
"5.	c #DC1016",
"6.	c #E91216",
"7.	c #E91217",
"8.	c #E91218",
"9.	c #F4131C",
"0.	c #F8101B",
"a.	c #DD2619",
"b.	c #D21013",
"c.	c #D01116",
"d.	c #D31019",
"e.	c #D70F1C",
"f.	c #D9111A",
"g.	c #D91118",
"h.	c #D81016",
"i.	c #E6111C",
"j.	c #F41420",
"k.	c #DC251B",
"l.	c #D21015",
"m.	c #CC111C",
"n.	c #CA101E",
"o.	c #C81020",
"p.	c #CA1020",
"q.	c #CB111D",
"r.	c #D10D1C",
"s.	c #E21022",
"t.	c #D62624",
"u.	c #BD1B26",
"v.	c #B61D2F",
"w.	c #B31B30",
"x.	c #B51C32",
"y.	c #B51B33",
"z.	c #B51B32",
"A.	c #B61B32",
"B.	c #BB1A31",
"C.	c #B32D31",
"  . + @ # # $ % & & & & & & & & & & * = ",
"- ; > , ' ' ) ! ~ ~ ~ ~ ~ ~ ~ ~ ~ { ] ^ ",
"/ ( _ : < [ < } | 1 2 3 4 2 1 5 | 6 7 8 ",
"9 0 a b c d e f g h i j k i l m n o p q ",
"r s t u v w x y z A B C D B E F G H p q ",
"I J t K L M N y O P Q R R R P P g S T q ",
"U V t W X X X X X X X X X X X X X Y Z ` ",
" ...+.@.X X X X X X X X X X X X X Y Z ` ",
"#.$.+.@.X X X X X X X X X X X X X Y Z ` ",
"%.$.+.@.X X X X X X X X X X X X X Y Z ` ",
"%.$.+.@.X X X X X X X X X X X X X &.*.=.",
"#.$.+.@.X X X X X X X X X X X X X &.-.=.",
"#.$.+.@.X X X X X X X X X X X X ;.>.,.'.",
"#.$.+.@.X X X X X X X X X X X X ).!.~.'.",
"#.{.+.@.X X X X X X X X X X X X ].^./.(.",
"%._.:.<.K K K K K K K K K K K [.}.|.1.2.",
"3.4.5.: 6.6.6.6.6.6.6.6.6.6.6.7.8.9.0.a.",
"b.c.d.e.f.f.f.f.f.f.f.f.f.f.g.g.h.i.j.k.",
"l.m.n.o.p.p.p.p.p.p.p.p.p.p.p.n.q.r.s.t.",
"u.v.w.w.x.y.y.y.y.y.y.y.y.y.y.z.x.A.B.C."};
