/* XPM */
static char * yellow_xpm[] = {
"20 20 153 2",
"  	c #C9C812",
". 	c #E0C90A",
"+ 	c #E4C708",
"@ 	c #E4C908",
"# 	c #E3CA06",
"$ 	c #E2CA06",
"% 	c #E2CA05",
"& 	c #E2CA07",
"* 	c #E4C907",
"= 	c #E4C906",
"- 	c #E6C805",
"; 	c #E5C706",
"> 	c #E6C608",
", 	c #D9CC32",
"' 	c #C2C009",
") 	c #DDC403",
"! 	c #E6C907",
"~ 	c #E7CA08",
"{ 	c #E6CB06",
"] 	c #E5CC05",
"^ 	c #E5CC04",
"/ 	c #E3CB03",
"( 	c #E3CB04",
"_ 	c #E3CA05",
": 	c #E5CA05",
"< 	c #E4CA05",
"[ 	c #E6C904",
"} 	c #E4C903",
"| 	c #E7CE03",
"1 	c #E0D531",
"2 	c #BCBF0B",
"3 	c #CCB800",
"4 	c #DEC303",
"5 	c #E4CA06",
"6 	c #E3CA07",
"7 	c #E2CA04",
"8 	c #E1CA04",
"9 	c #E2C904",
"0 	c #E4CE04",
"a 	c #E9D305",
"b 	c #DFD62D",
"c 	c #BFBE0E",
"d 	c #CDB700",
"e 	c #D8C003",
"f 	c #E1CA05",
"g 	c #E1C908",
"h 	c #DFC904",
"i 	c #E6CF05",
"j 	c #E9D206",
"k 	c #DED42D",
"l 	c #BFBF0F",
"m 	c #CDB801",
"n 	c #D6C003",
"o 	c #DECA04",
"p 	c #DFC807",
"q 	c #E1C804",
"r 	c #DEC802",
"s 	c #EBD406",
"t 	c #E0D52F",
"u 	c #C0BF10",
"v 	c #CDB800",
"w 	c #D6C002",
"x 	c #DDC903",
"y 	c #DFC806",
"z 	c #E1C803",
"A 	c #DFC802",
"B 	c #DEC803",
"C 	c #ECD506",
"D 	c #D5BF02",
"E 	c #DDC902",
"F 	c #DEC705",
"G 	c #E0C702",
"H 	c #E6CF04",
"I 	c #ECD606",
"J 	c #E1D530",
"K 	c #E1C602",
"L 	c #ECD605",
"M 	c #E1D531",
"N 	c #E6D003",
"O 	c #ECD603",
"P 	c #DDC805",
"Q 	c #DFC702",
"R 	c #E6D002",
"S 	c #ECD702",
"T 	c #E1D62E",
"U 	c #ECD701",
"V 	c #E1D62D",
"W 	c #BFBE0D",
"X 	c #E2D72E",
"Y 	c #BEBD0C",
"Z 	c #D4BF02",
"` 	c #DCC902",
" .	c #DEC805",
"..	c #D3C002",
"+.	c #DBC902",
"@.	c #E2C602",
"#.	c #ECD703",
"$.	c #CCB801",
"%.	c #D3BF04",
"&.	c #DDC901",
"*.	c #E1C605",
"=.	c #E1C604",
"-.	c #E0C704",
";.	c #E0C703",
">.	c #E6D004",
",.	c #D3C004",
"'.	c #DFC803",
").	c #DFC704",
"!.	c #DEC804",
"~.	c #DFC905",
"{.	c #E7D006",
"].	c #EDD708",
"^.	c #E1D72E",
"/.	c #BEBF0D",
"(.	c #CEBA05",
"_.	c #CEBA09",
":.	c #CFBB08",
"<.	c #D0BB09",
"[.	c #D1BA09",
"}.	c #D1BA08",
"|.	c #D1BA07",
"1.	c #D2B907",
"2.	c #D1B806",
"3.	c #DDC507",
"4.	c #EBD409",
"5.	c #E0D62E",
"6.	c #BBC00F",
"7.	c #C7B30A",
"8.	c #C5AF0C",
"9.	c #C5AF0D",
"0.	c #C5AF0F",
"a.	c #C6B011",
"b.	c #C6B012",
"c.	c #C5B012",
"d.	c #C5B013",
"e.	c #C5AF14",
"f.	c #C6AF13",
"g.	c #C7AF12",
"h.	c #C7AF11",
"i.	c #C7AE0F",
"j.	c #CAAD09",
"k.	c #DFC40C",
"l.	c #DED432",
"m.	c #BABA14",
"n.	c #C6AF08",
"o.	c #C8AE0B",
"p.	c #C8AE0C",
"q.	c #C9AF0C",
"r.	c #C8B00C",
"s.	c #C7B00C",
"t.	c #CDAE0C",
"u.	c #CBAE08",
"v.	c #D1C334",
"  . + @ @ # $ $ % % & & & * * = - ; > , ",
"' ) ! ~ { ] ^ ^ / ( _ _ _ : < : [ } | 1 ",
"2 3 4 5 6 7 7 7 8 8 8 8 8 9 9 9 < 0 a b ",
"c d e f g h h h h h h h h h h h % i j k ",
"l m n o p q q q r r r r r r r h h i s t ",
"u v w x y z z z A A A A A A r B h i C t ",
"u v D E F G G G G G G G G G A r h H I J ",
"u v D E F K K K G G G G G G A r h H L M ",
"u v D E F G G G G G G G G G A r h N O J ",
"u v D E P Q Q Q G G G G G G A r h R S T ",
"u v D E P Q Q Q G G G G G G A r h R U V ",
"l v D E F G G G G G G G G G A r h R U V ",
"W v D E F G G G r A G G G G G G h R U X ",
"Y v Z `  .G G G A Q G G G G G G h R S X ",
"Y 3 ..+.P @.G G K K K K G G G G h N #.X ",
"Y $.%.+.&.*.*.=.=.=.=.=.=.-.;.G h >.L X ",
"Y 3 ,.P E A '.;.;.-.-.-.-.;.).!.~.{.].^.",
"/.(._.:.<.[.[.[.}.}.|.|.|.|.}.1.2.3.4.5.",
"6.7.8.9.0.a.b.c.d.e.e.e.f.g.h.h.i.j.k.l.",
"m.n.o.o.p.q.r.s.s.s.s.s.r.q.q.q.q.t.u.v."};
